# Blender v2.78 (sub 0) OBJ File: ''
# www.blender.org
mtllib Fierce Deity Shaggy eyes.mtl
o Shaggy.001
v -1.078080 7.949678 3.338779
v -0.820758 7.866068 3.453567
v -0.858262 7.887269 3.436832
v 0.817779 7.865831 3.454511
v 0.788968 7.826708 3.471626
v 1.074681 7.949916 3.340572
v 0.979616 7.932957 3.385451
v 1.533810 7.779755 3.055950
v 1.761062 7.359988 2.818788
v 1.727692 7.437069 2.856771
v 1.779129 7.064631 2.824689
v 1.770939 7.145861 2.819084
v 1.438162 7.847552 3.125887
v -1.204845 7.923700 3.270036
v -1.537347 7.779993 3.053696
v -1.608691 7.676568 2.986890
v -0.791441 7.826959 3.470493
v 0.855782 7.887020 3.437973
v 0.796814 6.949608 3.444369
v 0.713375 7.023015 3.495352
v 1.605580 7.675650 2.988672
v 1.201074 7.924353 3.272699
v 0.622827 7.266769 3.566056
v 0.605521 7.351357 3.585635
v -0.800736 6.950345 3.440175
v -0.960438 6.902672 3.349189
v -1.454496 6.810165 3.078760
v -1.558501 6.848073 3.007384
v -0.614254 7.649166 3.593491
v -1.783927 7.066442 2.823131
v -1.774833 7.147058 2.817313
v -0.625800 7.266593 3.562141
v -0.655774 7.183191 3.535326
v -0.611358 7.525040 3.598723
v 1.714416 6.975987 2.879621
v 1.452638 6.807527 3.080184
v 1.306167 6.816644 3.164212
v 1.131782 6.856194 3.257783
v 0.956859 6.901171 3.351469
v -1.134650 6.857920 3.255913
v -1.308353 6.818618 3.162601
v 1.638757 6.905625 2.942470
v 1.556307 6.844830 3.008797
v -1.641701 6.908948 2.940934
v -1.718222 6.978947 2.877958
v 0.604349 7.436206 3.595824
v 0.608773 7.525123 3.599911
v -0.606920 7.436067 3.594562
v -0.608177 7.351194 3.583749
v 0.680383 7.101509 3.519526
v 0.652352 7.183342 3.541354
v -0.684171 7.101425 3.512747
v -0.717441 7.023089 3.488968
v -1.772553 7.223066 2.814095
v -1.772038 7.301096 2.812093
v 1.322404 7.890185 3.199539
v 1.669463 7.554863 2.920867
v 0.914087 7.910832 3.413277
v -0.752636 7.765096 3.494545
v -0.705336 7.706075 3.525759
v -1.672549 7.555964 2.919217
v -1.731169 7.438076 2.855231
v -1.326422 7.889468 3.196669
v -1.442131 7.847081 3.123147
v 1.768995 7.222057 2.815850
v 1.768367 7.300147 2.813682
v 0.750471 7.764851 3.495796
v 0.703084 7.705883 3.526991
v -0.916280 7.911068 3.411992
v -0.982017 7.933061 3.383984
v 0.611110 7.649112 3.594414
v -1.765100 7.360833 2.817443
vt 0.4620 0.8938
vt 0.4620 0.8938
vt 0.4620 0.8938
vt 0.4620 0.8937
vt 0.4620 0.8937
vt 0.4620 0.8937
vt 0.4621 0.8937
vt 0.4621 0.8937
vt 0.4621 0.8937
vt 0.4621 0.8937
vt 0.4621 0.8937
vt 0.4621 0.8937
vt 0.4622 0.8937
vt 0.2868 0.8979
vt 0.2868 0.8979
vt 0.2868 0.8979
vt 0.2868 0.8979
vt 0.2868 0.8979
vt 0.2868 0.8979
vt 0.2867 0.8980
vt 0.2867 0.8980
vt 0.2866 0.8980
vt 0.2866 0.8980
vt 0.2865 0.8980
vt 0.2864 0.8980
vt 0.2864 0.8980
vt 0.2863 0.8980
vt 0.2863 0.8980
vt 0.2863 0.8980
vt 0.2862 0.8980
vt 0.2862 0.8980
vt 0.2862 0.8980
vt 0.2862 0.8980
vt 0.4620 0.8938
vt 0.4620 0.8938
vt 0.4620 0.8938
vt 0.2853 0.8980
vt 0.2853 0.8980
vt 0.2853 0.8980
vt 0.2853 0.8980
vt 0.2852 0.8980
vt 0.2852 0.8980
vt 0.2852 0.8980
vt 0.2851 0.8980
vt 0.2850 0.8980
vt 0.2850 0.8980
vt 0.2849 0.8980
vt 0.2849 0.8980
vt 0.2848 0.8980
vt 0.2848 0.8979
vt 0.2847 0.8979
vt 0.2847 0.8979
vt 0.2847 0.8979
vt 0.2847 0.8979
vt 0.4618 0.8937
vt 0.4618 0.8937
vt 0.4618 0.8937
vt 0.4618 0.8937
vt 0.4618 0.8937
vt 0.4618 0.8937
vt 0.4618 0.8937
vt 0.4618 0.8937
vt 0.4619 0.8937
vt 0.4619 0.8937
vt 0.4619 0.8937
vt 0.4619 0.8938
vt 0.4619 0.8938
vt 0.4619 0.8938
vt 0.4619 0.8938
vt 0.4619 0.8938
vt 0.2854 0.8980
vt 0.2853 0.8980
vn 0.5300 -0.0301 0.8475
vn 0.5252 -0.0312 0.8504
vn 0.5299 -0.0236 0.8477
vn 0.5306 -0.0251 0.8472
vn 0.5338 -0.0343 0.8449
vn 0.5328 -0.0237 0.8459
vn 0.5243 -0.0314 0.8510
vn 0.5286 -0.0308 0.8483
vn -0.5291 -0.0309 0.8480
vn -0.5302 -0.0351 0.8471
vn -0.5294 -0.0311 0.8478
vn -0.5275 -0.0273 0.8491
vn -0.5316 -0.0319 0.8464
vn -0.5305 -0.0311 0.8471
vn -0.5267 -0.0242 0.8497
vn -0.5306 -0.0235 0.8473
vn -0.5312 -0.0265 0.8468
vn -0.5301 -0.0251 0.8476
vn -0.5263 -0.0272 0.8498
vn -0.5290 -0.0243 0.8483
usemtl cshaggy
s 1
f 24/1/1 23/2/1 51/3/1 50/4/1 20/5/1 19/6/2 39/7/1 38/8/3 37/9/1 36/10/1 43/11/1 42/12/4 35/13/1 11/14/1 12/15/1 65/16/1 66/17/5 9/18/1 10/19/1 57/20/6 21/21/1 8/22/1 13/23/1 56/24/1 22/25/1 6/26/1 7/27/1 58/28/7 18/29/8 4/30/1 5/31/1 67/32/1 68/33/1 71/34/1 47/35/1 46/36/1
f 59/37/9 17/38/10 2/39/11 3/40/12 69/41/13 70/42/9 1/43/14 14/44/9 63/45/15 64/46/9 15/47/9 16/48/16 61/49/17 62/50/9 72/51/9 55/52/9 54/53/9 31/54/9 30/55/9 45/56/9 44/57/18 28/58/9 27/59/9 41/60/19 40/61/20 26/62/9 25/63/9 53/64/9 52/65/9 33/66/9 32/67/9 49/68/9 48/69/9 34/70/9 29/71/9 60/72/9
