# Blender v2.78 (sub 0) OBJ File: 'health_bar.blend'
# www.blender.org
mtllib health_bar_top.mtl
o isaac_clarke_isaac_healthbar
v -0.408162 1.791628 -0.131691
v -0.409562 3.477926 0.015512
v -0.445662 1.800227 -0.500990
v 0.440438 1.801127 -0.503989
v 0.354938 1.810229 -0.680289
v 0.439538 2.709227 -0.473690
v 0.353938 2.730532 -0.659591
v 0.438938 3.558829 -0.370290
v 0.353338 3.613631 -0.547889
v 0.440738 4.424433 -0.113989
v 0.469638 4.830134 0.394813
v 0.438838 5.147627 0.103611
v 0.469738 3.479933 0.005112
v 0.471038 1.799727 -0.144489
v -0.365262 1.686930 -0.664591
v -0.225162 1.828730 -0.811991
v -0.003662 1.714030 -0.838190
v 0.217838 1.829230 -0.813491
v -0.446562 2.706927 -0.470989
v 0.216838 2.760329 -0.793091
v 0.216238 3.652930 -0.686890
v 0.353238 4.550128 -0.299088
v 0.230038 4.603434 -0.413388
v -0.005262 3.558527 -0.732287
v -0.005562 4.545634 -0.497389
v -0.226762 3.652434 -0.685489
v -0.212962 4.703631 -0.357689
v -0.367162 4.440333 -0.328289
v -0.366862 3.497133 -0.553988
v -0.444962 4.426833 -0.110389
v -0.447162 3.557829 -0.367290
v -0.366262 2.615828 -0.665590
v -0.004662 2.654028 -0.841790
v -0.226162 2.757830 -0.793191
v 0.327438 5.258730 -0.042889
v 0.216138 5.369833 -0.189388
v -0.005362 5.369631 -0.188688
v -0.226862 5.369334 -0.187988
v -0.337062 5.258029 -0.040688
v -0.447262 5.146628 0.106611
v -0.409762 4.855631 0.406511
v 0.470388 2.639830 -0.069689
v -0.405912 2.196929 -0.567790
v -0.295212 1.757830 -0.738291
v 0.223138 4.128182 -0.550139
v 0.216538 3.206630 -0.739990
v -0.004962 3.106278 -0.787039
v 0.439788 4.786030 -0.005189
v 0.397038 4.019032 -0.330939
v 0.439238 3.134028 -0.421990
v -0.409662 4.166779 0.211011
v -0.296812 3.574784 -0.619739
v 0.397688 1.805678 -0.592139
v 0.397238 2.259728 -0.576989
v -0.109262 4.624632 -0.427539
v -0.005412 4.052080 -0.614838
v -0.407012 3.527481 -0.460639
v 0.340338 4.904429 -0.170989
v -0.367012 3.968733 -0.441139
v -0.406412 2.661377 -0.568289
v 0.455088 2.640530 -0.249439
v -0.408862 2.634777 -0.058090
v -0.114912 2.241379 -0.826890
v -0.392162 5.202329 0.032961
v -0.352112 4.849181 -0.184489
v 0.105488 3.605729 -0.709589
v -0.225662 2.293280 -0.802591
v 0.454338 3.519381 -0.182589
v -0.428462 4.206730 0.019610
v -0.116012 3.605481 -0.708888
v 0.112388 4.080980 -0.572838
v -0.109162 5.036631 -0.273189
v 0.285088 3.186980 -0.670490
v -0.005462 4.957632 -0.343039
v 0.396988 4.487281 -0.206539
v 0.217338 2.294780 -0.803291
v 0.454638 3.094580 -0.234289
v 0.396138 3.586230 -0.459090
v 0.106588 2.237180 -0.815640
v -0.296212 2.686829 -0.729390
v 0.271788 5.314281 -0.116139
v -0.290062 4.571982 -0.342989
v -0.406062 4.433583 -0.219339
v 0.285388 2.745430 -0.726341
v 0.354438 2.270380 -0.669940
v -0.366562 3.056480 -0.609789
v -0.446112 2.253577 -0.485989
v -0.406712 3.086828 -0.516440
v -0.428512 5.001129 0.256561
v -0.296512 3.127481 -0.673589
v -0.365762 2.151379 -0.665090
v -0.426912 1.795928 -0.316340
v 0.396038 4.848877 -0.097739
v 0.105788 3.153479 -0.764340
v -0.446112 4.786731 -0.001889
v -0.407212 4.793480 -0.110839
v 0.383138 5.203178 0.030361
v 0.105388 5.369732 -0.189038
v -0.219912 5.036483 -0.272839
v 0.291638 4.576781 -0.356238
v 0.439838 3.991631 -0.242140
v 0.112238 4.574534 -0.455389
v 0.284788 3.633281 -0.617390
v 0.454238 4.988880 0.249212
v 0.396438 3.144681 -0.514940
v -0.446062 3.992331 -0.238840
v 0.278738 4.931082 -0.228139
v -0.219862 4.178032 -0.521589
v 0.286388 1.819730 -0.746890
v 0.285888 2.279881 -0.736541
v -0.004162 2.184029 -0.839990
v -0.114412 1.771380 -0.825090
v -0.428362 3.517878 -0.175889
v -0.116112 5.369483 -0.188338
v 0.107088 1.771630 -0.825840
v 0.454288 4.194481 0.012261
v -0.275012 4.980830 -0.199189
v -0.427362 4.641232 0.148061
v 0.455188 4.627284 0.140412
v 0.284738 4.101529 -0.492989
v 0.469688 4.155034 0.199962
v -0.115412 2.705929 -0.817490
v 0.353638 3.172081 -0.603740
v -0.296962 4.046383 -0.506889
v 0.353288 4.081880 -0.423489
v 0.439988 2.255177 -0.488839
v 0.396738 2.719880 -0.566640
v -0.428062 3.092427 -0.227738
v -0.446862 3.132378 -0.419139
v 0.105288 4.957733 -0.343389
v -0.116162 4.099034 -0.591439
v 0.223088 4.986633 -0.301388
v -0.115712 3.158179 -0.762739
v -0.405912 3.961983 -0.332189
v -0.226462 3.205132 -0.739340
v -0.427612 2.639076 -0.242739
v -0.405462 1.743579 -0.582790
v -0.281962 5.313682 -0.114338
v 0.455738 1.800427 -0.324239
v 0.106088 2.707179 -0.817440
v -0.295712 2.222279 -0.738790
vt 0.9940 0.6657
vt 0.9940 0.7484
vt 0.9301 0.6657
vt 0.1309 0.6657
vt 0.1860 0.6657
vt 0.1309 0.7070
vt 0.2412 0.6657
vt 0.2412 0.7070
vt 0.1860 0.7070
vt 0.1309 0.7484
vt 0.1860 0.7484
vt 0.1309 0.7897
vt 0.1309 0.8310
vt 0.1860 0.7897
vt 0.1860 0.8310
vt 0.1268 0.8774
vt -0.0004 0.9962
vt 0.0611 0.9600
vt 0.0652 0.9962
vt 0.0652 0.9136
vt -0.0004 0.8310
vt 0.0652 0.8310
vt -0.0004 0.9136
vt 0.0652 0.7897
vt 0.0652 0.7484
vt -0.0004 0.6657
vt 0.0652 0.6657
vt -0.0004 0.7484
vt 0.8662 0.6657
vt 0.8662 0.7070
vt 0.8119 0.6605
vt 0.3047 0.6657
vt 0.2412 0.7484
vt 0.3047 0.7070
vt 0.3047 0.7484
vt 0.2412 0.7897
vt 0.2412 0.8310
vt 0.3047 0.7897
vt 0.3047 0.8310
vt 0.2412 0.8774
vt 0.2412 0.9239
vt 0.3047 0.8774
vt 0.2973 0.9239
vt 0.3681 0.8310
vt 0.4341 0.8259
vt 0.3607 0.8774
vt 0.5002 0.8207
vt 0.5002 0.8672
vt 0.4268 0.8723
vt 0.5660 0.8259
vt 0.5002 0.9136
vt 0.5660 0.8723
vt 0.5652 0.9239
vt 0.6319 0.8310
vt 0.6948 0.8723
vt 0.6310 0.8826
vt 0.7576 0.8207
vt 0.7576 0.8672
vt 0.6948 0.8259
vt 0.8742 0.9239
vt 0.8159 0.9188
vt 0.8159 0.8723
vt 0.8662 0.8310
vt 0.8702 0.8774
vt 0.8119 0.8259
vt 0.7576 0.7380
vt 0.8119 0.7845
vt 0.7576 0.7793
vt 0.8662 0.7484
vt 0.8662 0.7897
vt 0.8119 0.7432
vt 0.8119 0.7019
vt 0.7576 0.6554
vt 0.7576 0.6967
vt 0.6948 0.6605
vt 0.3681 0.6657
vt 0.4341 0.6605
vt 0.3681 0.7070
vt 0.5002 0.6554
vt 0.5002 0.6967
vt 0.4341 0.7019
vt 0.5660 0.6605
vt 0.5002 0.7380
vt 0.5660 0.7018
vt 0.5660 0.7432
vt 0.6319 0.6657
vt 0.6948 0.7018
vt 0.6319 0.7070
vt 0.6948 0.7432
vt 0.6319 0.7484
vt 0.6948 0.7845
vt 0.6319 0.7897
vt 0.5660 0.7845
vt 0.5002 0.7793
vt 0.4341 0.7845
vt 0.3681 0.7484
vt 0.4341 0.7432
vt 0.3681 0.7897
vt 0.1820 0.8774
vt 0.1227 0.9239
vt 0.1820 0.9239
vt 0.1268 0.9600
vt 0.1309 0.9962
vt 0.1860 0.9600
vt 0.1902 0.9962
vt 0.2454 0.9600
vt 0.2495 0.9962
vt 0.3014 0.9600
vt 0.3088 0.9962
vt 0.3533 0.9239
vt 0.4268 0.9188
vt 0.3607 0.9600
vt 0.3681 0.9962
vt 0.4341 0.9549
vt 0.4340 0.9962
vt 0.5001 0.9549
vt 0.5000 0.9962
vt 0.5651 0.9652
vt 0.5660 0.9962
vt 0.6301 0.9342
vt 0.6896 0.9652
vt 0.6310 0.9652
vt 0.7576 0.9136
vt 0.7534 0.9549
vt 0.6939 0.9239
vt 0.8119 0.9549
vt 0.8702 0.9600
vt 0.9341 0.9600
vt 0.9301 0.9136
vt 0.9940 0.8310
vt 0.9940 0.9136
vt 0.9301 0.8310
vt 0.9301 0.7897
vt 0.9301 0.7484
vt 0.9940 0.9962
vt 0.9301 0.9962
vt 0.8662 0.9962
vt 0.8076 0.9962
vt 0.7491 0.9962
vt 0.6905 0.9962
vt 0.6319 0.9962
vn -0.9949 -0.0096 0.1008
vn 0.9645 0.0117 -0.2640
vn 0.9000 0.0154 -0.4357
vn 0.9665 0.0095 -0.2566
vn 0.8157 0.0160 -0.5783
vn 0.8171 0.0138 -0.5763
vn 0.9044 0.0129 -0.4265
vn 0.9676 0.0181 -0.2518
vn 0.9092 0.0306 -0.4152
vn 0.9677 0.0311 -0.2500
vn 0.9650 0.0524 -0.2569
vn 0.9076 0.0523 -0.4165
vn 0.9076 0.0854 -0.4111
vn 0.9681 0.0692 -0.2406
vn 0.9968 0.0243 -0.0763
vn 0.9970 0.0225 -0.0746
vn 0.9967 0.0259 -0.0772
vn 0.9970 0.0208 -0.0745
vn 0.9968 0.0156 -0.0778
vn 0.9968 0.0164 -0.0783
vn 0.9968 0.0223 -0.0771
vn 0.9972 0.0068 -0.0739
vn 0.9971 0.0058 -0.0765
vn 0.9964 0.0083 -0.0848
vn -0.9736 0.0047 -0.2282
vn -0.9816 0.0053 -0.1907
vn -0.8935 0.0140 -0.4488
vn 0.6979 0.0169 -0.7160
vn 0.8162 0.0419 -0.5762
vn 0.6987 0.0166 -0.7153
vn 0.7025 0.0530 -0.7097
vn 0.8179 0.0727 -0.5707
vn 0.8241 0.1094 -0.5558
vn 0.7130 0.0859 -0.6959
vn 0.7240 0.1297 -0.6775
vn 0.8386 0.1400 -0.5265
vn 0.8288 0.1714 -0.5326
vn 0.7178 0.1810 -0.6723
vn 0.7131 0.2231 -0.6646
vn 0.4335 0.1877 -0.8814
vn 0.1154 0.1975 -0.9735
vn 0.4211 0.2452 -0.8733
vn -0.0001 0.1676 -0.9859
vn 0.0875 0.2306 -0.9691
vn 0.1799 0.2498 -0.9514
vn -0.1322 0.1744 -0.9758
vn -0.0509 0.2837 -0.9576
vn -0.2463 0.2577 -0.9343
vn -0.3612 0.3050 -0.8812
vn -0.4635 0.1757 -0.8685
vn -0.6736 0.2023 -0.7109
vn -0.4811 0.2667 -0.8351
vn -0.8320 0.0913 -0.5473
vn -0.8643 0.1168 -0.4892
vn -0.7452 0.1163 -0.6566
vn -0.9913 0.0344 -0.1271
vn -0.9399 0.0876 -0.3301
vn -0.9194 0.1038 -0.3795
vn -0.9821 0.0455 -0.1829
vn -0.9828 0.0547 -0.1765
vn -0.9040 0.0898 -0.4180
vn -0.8218 0.0267 -0.5691
vn -0.9132 0.0496 -0.4044
vn -0.8268 0.0701 -0.5581
vn -0.9856 0.0142 -0.1683
vn -0.9873 0.0185 -0.1576
vn -0.9202 0.0234 -0.3907
vn -0.9097 0.0063 -0.4151
vn -0.8244 0.0049 -0.5659
vn -0.8387 -0.0015 -0.5446
vn -0.7241 -0.0015 -0.6897
vn 0.3886 0.0208 -0.9212
vn 0.0995 0.0219 -0.9948
vn 0.4233 0.0203 -0.9058
vn 0.0015 0.0066 -1.0000
vn 0.0491 -0.0038 -0.9988
vn 0.1582 0.0092 -0.9874
vn -0.1195 -0.0039 -0.9928
vn 0.0069 0.0472 -0.9989
vn -0.1627 0.0078 -0.9867
vn -0.1828 0.0692 -0.9807
vn -0.4588 -0.0003 -0.8885
vn -0.7029 0.0063 -0.7112
vn -0.4601 0.0175 -0.8877
vn -0.7000 0.0506 -0.7123
vn -0.4595 0.0773 -0.8848
vn -0.7231 0.0842 -0.6856
vn -0.4680 0.1053 -0.8774
vn -0.1583 0.1182 -0.9803
vn -0.0046 0.1202 -0.9927
vn 0.1550 0.1178 -0.9809
vn 0.4555 0.0686 -0.8876
vn 0.1883 0.0567 -0.9805
vn 0.4642 0.1050 -0.8795
vn 0.9162 0.1077 -0.3859
vn 0.9725 0.0636 -0.2239
vn 0.9247 0.1049 -0.3659
vn 0.9725 0.0694 -0.2222
vn 0.9320 0.1354 -0.3361
vn 0.8903 0.1599 -0.4265
vn 0.8481 0.2072 -0.4877
vn 0.7860 0.2353 -0.5717
vn 0.8364 0.1901 -0.5141
vn 0.7825 0.2142 -0.5846
vn 0.8417 0.1655 -0.5140
vn 0.5122 0.2471 -0.8226
vn 0.2705 0.2489 -0.9300
vn 0.5915 0.2361 -0.7710
vn 0.4438 0.2958 -0.8459
vn 0.1308 0.3160 -0.9397
vn -0.0033 0.3508 -0.9364
vn -0.1750 0.3454 -0.9220
vn -0.0370 0.3088 -0.9504
vn -0.1753 0.2931 -0.9399
vn -0.0034 0.2470 -0.9690
vn -0.4862 0.2896 -0.8245
vn -0.7381 0.2028 -0.6435
vn -0.4766 0.2078 -0.8542
vn -0.7956 0.1809 -0.5782
vn -0.7467 0.2450 -0.6184
vn -0.5978 0.2657 -0.7563
vn -0.9001 0.1498 -0.4091
vn -0.9921 0.0332 -0.1208
vn -0.9955 -0.0274 0.0905
vn -0.9957 -0.0248 0.0897
vn -0.9955 -0.0184 0.0930
vn -0.9954 -0.0263 0.0923
vn -0.9954 -0.0193 0.0937
vn -0.9961 -0.0080 0.0884
vn -0.9958 -0.0067 0.0912
vn -0.9953 -0.0295 0.0926
vn -0.9951 -0.0315 0.0939
vn -0.9566 0.1112 -0.2695
vn -0.8513 0.2017 -0.4844
vn -0.8273 0.1686 -0.5359
vn -0.8361 0.1191 -0.5355
vn -0.4237 0.2154 -0.8798
usemtl Isaac_Healthbar
s 1
f 1/1/1 62/2/1 92/3/1
f 4/4/2 53/5/3 126/6/4
f 5/7/5 85/8/6 54/9/7
f 6/10/8 127/11/9 50/12/10
f 8/13/11 105/14/12 78/15/13
f 8/13/11 78/15/13 101/16/14
f 11/17/15 119/18/16 104/19/17
f 11/17/15 116/20/18 119/18/16
f 13/21/19 68/22/20 121/23/21
f 13/21/19 77/24/22 68/22/20
f 13/21/19 61/25/23 77/24/22
f 14/26/24 139/27/24 42/28/24
f 3/29/25 87/30/26 137/31/27
f 5/7/5 109/32/28 85/8/6
f 7/33/29 110/34/30 84/35/31
f 7/33/29 84/35/31 123/36/32
f 9/37/33 73/38/34 103/39/35
f 9/37/33 103/39/35 125/40/36
f 22/41/37 120/42/38 100/43/39
f 21/44/40 66/45/41 45/46/42
f 24/47/43 56/48/44 71/49/45
f 24/47/43 70/50/46 56/48/44
f 25/51/47 131/52/48 55/53/49
f 26/54/50 124/55/51 108/56/52
f 29/57/53 59/58/54 52/59/55
f 30/60/56 83/61/57 134/62/58
f 31/63/59 106/64/60 57/65/61
f 32/66/62 88/67/63 86/68/64
f 19/69/65 129/70/66 60/71/67
f 19/69/65 60/71/67 43/72/68
f 15/73/69 91/74/70 44/75/71
f 18/76/72 115/77/73 76/78/74
f 17/79/75 111/80/76 79/81/77
f 17/79/75 112/82/78 111/80/76
f 33/83/79 63/84/80 122/85/81
f 16/86/82 141/87/83 67/88/84
f 32/66/62 86/68/64 80/89/85
f 34/90/86 90/91/87 135/92/88
f 24/47/43 133/93/89 70/50/46
f 33/83/79 122/85/81 47/94/90
f 21/44/40 94/95/91 66/45/41
f 20/96/92 140/97/93 46/98/94
f 9/37/33 125/40/36 49/99/95
f 10/100/96 75/101/97 48/102/98
f 12/103/99 93/104/100 97/105/101
f 22/41/37 100/43/39 58/106/102
f 35/107/103 107/108/104 81/109/105
f 23/110/106 102/111/107 132/112/108
f 36/113/109 130/114/110 98/115/111
f 25/51/47 55/53/49 74/116/112
f 37/117/113 72/118/114 114/119/115
f 27/120/116 117/121/117 99/122/118
f 28/123/119 65/124/120 82/125/121
f 28/123/119 96/126/122 65/124/120
f 30/60/56 95/127/123 83/61/57
f 30/60/56 118/128/124 95/127/123
f 31/63/59 69/129/125 106/64/60
f 2/130/126 51/131/127 113/132/128
f 19/69/65 128/133/129 129/70/66
f 3/29/25 136/134/130 87/30/26
f 87/30/26 128/133/129 19/69/65
f 87/30/26 136/134/130 128/133/129
f 136/134/130 2/130/126 128/133/129
f 129/70/66 113/132/128 31/63/59
f 129/70/66 128/133/129 113/132/128
f 128/133/129 2/130/126 113/132/128
f 113/132/128 69/129/125 31/63/59
f 113/132/128 51/131/127 69/129/125
f 51/131/127 41/135/131 69/129/125
f 106/64/60 118/128/124 30/60/56
f 106/64/60 69/129/125 118/128/124
f 69/129/125 41/135/131 118/128/124
f 95/127/123 89/136/132 40/137/133
f 95/127/123 118/128/124 89/136/132
f 118/128/124 41/135/131 89/136/132
f 83/61/57 96/126/122 28/123/119
f 83/61/57 95/127/123 96/126/122
f 95/127/123 40/137/133 96/126/122
f 65/124/120 64/138/134 39/139/135
f 65/124/120 96/126/122 64/138/134
f 96/126/122 40/137/133 64/138/134
f 82/125/121 117/121/117 27/120/116
f 82/125/121 65/124/120 117/121/117
f 65/124/120 39/139/135 117/121/117
f 99/122/118 138/140/136 38/141/137
f 99/122/118 117/121/117 138/140/136
f 117/121/117 39/139/135 138/140/136
f 114/119/115 99/122/118 38/141/137
f 114/119/115 72/118/114 99/122/118
f 72/118/114 27/120/116 99/122/118
f 74/116/112 72/118/114 37/117/113
f 74/116/112 55/53/49 72/118/114
f 55/53/49 27/120/116 72/118/114
f 98/115/111 74/116/112 37/117/113
f 98/115/111 130/114/110 74/116/112
f 130/114/110 25/51/47 74/116/112
f 132/112/108 130/114/110 36/113/109
f 132/112/108 102/111/107 130/114/110
f 102/111/107 25/51/47 130/114/110
f 81/109/105 132/112/108 36/113/109
f 81/109/105 107/108/104 132/112/108
f 107/108/104 23/110/106 132/112/108
f 58/106/102 107/108/104 35/107/103
f 58/106/102 100/43/39 107/108/104
f 100/43/39 23/110/106 107/108/104
f 97/105/101 58/106/102 35/107/103
f 97/105/101 93/104/100 58/106/102
f 93/104/100 22/41/37 58/106/102
f 48/102/98 93/104/100 12/103/99
f 48/102/98 75/101/97 93/104/100
f 75/101/97 22/41/37 93/104/100
f 49/99/95 75/101/97 10/100/96
f 49/99/95 125/40/36 75/101/97
f 125/40/36 22/41/37 75/101/97
f 46/98/94 94/95/91 21/44/40
f 46/98/94 140/97/93 94/95/91
f 140/97/93 33/83/79 94/95/91
f 66/45/41 47/94/90 24/47/43
f 66/45/41 94/95/91 47/94/90
f 94/95/91 33/83/79 47/94/90
f 47/94/90 133/93/89 24/47/43
f 47/94/90 122/85/81 133/93/89
f 122/85/81 34/90/86 133/93/89
f 70/50/46 135/92/88 26/54/50
f 70/50/46 133/93/89 135/92/88
f 133/93/89 34/90/86 135/92/88
f 135/92/88 52/59/55 26/54/50
f 135/92/88 90/91/87 52/59/55
f 90/91/87 29/57/53 52/59/55
f 80/89/85 90/91/87 34/90/86
f 80/89/85 86/68/64 90/91/87
f 86/68/64 29/57/53 90/91/87
f 67/88/84 80/89/85 34/90/86
f 67/88/84 141/87/83 80/89/85
f 141/87/83 32/66/62 80/89/85
f 122/85/81 67/88/84 34/90/86
f 122/85/81 63/84/80 67/88/84
f 63/84/80 16/86/82 67/88/84
f 111/80/76 63/84/80 33/83/79
f 111/80/76 112/82/78 63/84/80
f 112/82/78 16/86/82 63/84/80
f 79/81/77 140/97/93 20/96/92
f 79/81/77 111/80/76 140/97/93
f 111/80/76 33/83/79 140/97/93
f 76/78/74 79/81/77 20/96/92
f 76/78/74 115/77/73 79/81/77
f 115/77/73 17/79/75 79/81/77
f 44/75/71 141/87/83 16/86/82
f 44/75/71 91/74/70 141/87/83
f 91/74/70 32/66/62 141/87/83
f 43/72/68 91/74/70 15/73/69
f 43/72/68 60/71/67 91/74/70
f 60/71/67 32/66/62 91/74/70
f 60/71/67 88/67/63 32/66/62
f 60/71/67 129/70/66 88/67/63
f 129/70/66 31/63/59 88/67/63
f 86/68/64 57/65/61 29/57/53
f 86/68/64 88/67/63 57/65/61
f 88/67/63 31/63/59 57/65/61
f 57/65/61 134/62/58 29/57/53
f 57/65/61 106/64/60 134/62/58
f 106/64/60 30/60/56 134/62/58
f 134/62/58 59/58/54 29/57/53
f 134/62/58 83/61/57 59/58/54
f 83/61/57 28/123/119 59/58/54
f 52/59/55 124/55/51 26/54/50
f 52/59/55 59/58/54 124/55/51
f 59/58/54 28/123/119 124/55/51
f 108/56/52 82/125/121 27/120/116
f 108/56/52 124/55/51 82/125/121
f 124/55/51 28/123/119 82/125/121
f 55/53/49 108/56/52 27/120/116
f 55/53/49 131/52/48 108/56/52
f 131/52/48 26/54/50 108/56/52
f 56/48/44 131/52/48 25/51/47
f 56/48/44 70/50/46 131/52/48
f 70/50/46 26/54/50 131/52/48
f 71/49/45 102/111/107 23/110/106
f 71/49/45 56/48/44 102/111/107
f 56/48/44 25/51/47 102/111/107
f 45/46/42 71/49/45 23/110/106
f 45/46/42 66/45/41 71/49/45
f 66/45/41 24/47/43 71/49/45
f 100/43/39 45/46/42 23/110/106
f 100/43/39 120/42/38 45/46/42
f 120/42/38 21/44/40 45/46/42
f 125/40/36 120/42/38 22/41/37
f 125/40/36 103/39/35 120/42/38
f 103/39/35 21/44/40 120/42/38
f 103/39/35 46/98/94 21/44/40
f 103/39/35 73/38/34 46/98/94
f 73/38/34 20/96/92 46/98/94
f 123/36/32 73/38/34 9/37/33
f 123/36/32 84/35/31 73/38/34
f 84/35/31 20/96/92 73/38/34
f 84/35/31 76/78/74 20/96/92
f 84/35/31 110/34/30 76/78/74
f 110/34/30 18/76/72 76/78/74
f 85/8/6 110/34/30 7/33/29
f 85/8/6 109/32/28 110/34/30
f 109/32/28 18/76/72 110/34/30
f 137/31/27 43/72/68 15/73/69
f 137/31/27 87/30/26 43/72/68
f 87/30/26 19/69/65 43/72/68
f 42/28/24 61/25/23 13/21/19
f 42/28/24 139/27/24 61/25/23
f 139/27/24 4/4/2 61/25/23
f 77/24/22 126/6/4 6/10/8
f 77/24/22 61/25/23 126/6/4
f 61/25/23 4/4/2 126/6/4
f 68/22/20 50/12/10 8/13/11
f 68/22/20 77/24/22 50/12/10
f 77/24/22 6/10/8 50/12/10
f 121/23/21 116/20/18 11/17/15
f 121/23/21 68/22/20 116/20/18
f 68/22/20 8/13/11 116/20/18
f 119/18/16 101/16/14 10/100/96
f 119/18/16 116/20/18 101/16/14
f 116/20/18 8/13/11 101/16/14
f 104/19/17 48/102/98 12/103/99
f 104/19/17 119/18/16 48/102/98
f 119/18/16 10/100/96 48/102/98
f 101/16/14 49/99/95 10/100/96
f 101/16/14 78/15/13 49/99/95
f 78/15/13 9/37/33 49/99/95
f 78/15/13 123/36/32 9/37/33
f 78/15/13 105/14/12 123/36/32
f 105/14/12 7/33/29 123/36/32
f 50/12/10 105/14/12 8/13/11
f 50/12/10 127/11/9 105/14/12
f 127/11/9 7/33/29 105/14/12
f 54/9/7 127/11/9 6/10/8
f 54/9/7 85/8/6 127/11/9
f 85/8/6 7/33/29 127/11/9
f 126/6/4 54/9/7 6/10/8
f 126/6/4 53/5/3 54/9/7
f 53/5/3 5/7/5 54/9/7
f 92/3/1 136/134/130 3/29/25
f 92/3/1 62/2/1 136/134/130
f 62/2/1 2/130/126 136/134/130
