# Blender v2.78 (sub 0) OBJ File: ''
# www.blender.org
mtllib pipboy_display.mtl
o bet_pb_reference.001
v 0.582036 3.464087 -2.072128
v 0.575650 3.358773 -2.036456
v -1.109204 3.747779 -0.156574
v -1.136310 3.860152 -0.156911
v 2.136036 3.715345 0.001418
v 2.140190 3.395137 -1.996738
v -0.976120 3.533038 -2.147518
v 0.499863 3.787748 -0.077746
v -0.951975 3.426373 -2.110370
v 0.575650 3.358772 -2.036457
v 0.495013 3.676787 -0.078957
v 2.099224 3.605800 -0.001338
v 2.103275 3.291172 -1.962543
vt 0.4201 0.9601
vt 0.2572 0.9367
vt 0.4201 0.9367
vt 0.2397 0.9601
vt 0.4201 0.6795
vt 0.2490 0.7029
vt 0.2307 0.6795
vt 0.4201 0.7029
vt 0.2397 0.9368
vt 0.2307 0.7028
vt 0.5829 0.9367
vt 0.4201 0.9367
vt 0.6004 0.9601
vt 0.5911 0.7029
vt 0.6094 0.6795
vt 0.6004 0.9368
vt 0.6094 0.7028
vn -0.0315 0.3223 0.9461
vn 0.4907 0.7466 0.4492
vn 0.0129 0.8566 0.5159
vn 0.6677 0.3751 0.6431
vn 0.0487 0.0088 -0.9987
vn 0.5541 0.5756 -0.6013
vn 0.7430 0.1773 -0.6453
vn 0.0654 0.6506 -0.7566
vn -0.4640 0.7888 0.4030
vn -0.6908 0.4352 0.5773
vn -0.4407 0.6197 -0.6494
vn -0.6589 0.2394 -0.7131
usemtl models\player\items\engineer\bet_pb
s 1
f 1/1/1 9/2/2 2/3/3
f 1/1/1 7/4/4 9/2/2
f 8/5/5 3/6/6 4/7/7
f 8/5/5 11/8/8 3/6/6
f 7/9/4 3/6/6 9/2/2
f 7/9/4 4/10/7 3/6/6
f 9/2/2 11/8/8 2/3/3
f 9/2/2 3/6/6 11/8/8
f 13/11/9 1/1/1 10/12/3
f 13/11/9 6/13/10 1/1/1
f 8/5/5 12/14/11 11/8/8
f 8/5/5 5/15/12 12/14/11
f 6/16/10 12/14/11 5/17/12
f 6/16/10 13/11/9 12/14/11
f 13/11/9 11/8/8 12/14/11
f 13/11/9 10/12/3 11/8/8
