# Blender v2.78 (sub 0) OBJ File: ''
# www.blender.org
mtllib pipboy_display.mtl
o bet_pb_reference.001_bet_pb_reference.002
v 0.582036 3.464087 -2.072128
v -0.951975 3.426373 -2.110369
v 0.575650 3.358773 -2.036456
v -0.976120 3.533038 -2.147517
v 0.499863 3.787748 -0.077745
v -1.109204 3.747779 -0.156573
v -1.136310 3.860152 -0.156910
v 0.495013 3.676787 -0.078956
v 2.103275 3.291172 -1.962543
v 0.575650 3.358772 -2.036457
v 2.140190 3.395137 -1.996737
v 2.099224 3.605800 -0.001337
v 2.136036 3.715345 0.001419
v -2.538426 3.339024 -2.789572
v -3.394961 3.376925 -2.831015
v -2.983496 3.424074 -2.402585
v -3.283941 3.417314 -2.542485
v -2.672738 3.390266 -2.512913
v 0.658324 5.206039 1.414180
v 0.653056 5.055817 1.385662
v 0.731616 5.083636 1.224622
v 0.487299 5.200644 1.474183
v 0.482031 5.050422 1.445666
v 0.323994 5.220831 1.398003
v 0.318724 5.070612 1.369486
v 0.264072 5.254775 1.230262
v 0.258803 5.104558 1.201745
v 0.337366 5.132374 1.040705
v 0.342634 5.282591 1.069220
v 0.513661 5.287982 1.009216
v 0.508393 5.137766 0.980700
v 0.671698 5.117579 1.056882
v 0.676967 5.267797 1.085396
v 0.736888 5.233851 1.253138
v 1.627456 5.161870 1.467816
v 1.293128 5.176665 1.451639
v 1.456432 5.156476 1.527825
v 1.233202 5.210609 1.283901
v 1.311769 5.238425 1.122860
v 1.482795 5.243821 1.062856
v 1.646100 5.223629 1.139035
v 1.706020 5.189688 1.306778
v 1.622190 5.011652 1.439297
v 1.451164 5.006256 1.499303
v 1.287861 5.026445 1.423120
v 1.227935 5.060389 1.255381
v 1.306503 5.088205 1.094342
v 1.477530 5.093596 1.034339
v 1.640830 5.073410 1.110519
v 1.700753 5.039468 1.278258
v -0.662147 5.294481 1.192193
v -0.412561 5.327696 0.971150
v -0.583588 5.322298 1.031154
v -0.249255 5.307504 1.047330
v -0.189336 5.273562 1.215071
v -0.267896 5.245743 1.376111
v -0.438924 5.240349 1.436119
v -0.602229 5.260538 1.359935
v -0.273163 5.095524 1.347591
v -0.444191 5.090130 1.407597
v -0.607496 5.110318 1.331415
v -0.667420 5.144265 1.163675
v -0.588854 5.172078 1.002636
v -0.417827 5.177469 0.942633
v -0.254522 5.157283 1.018813
v -0.194604 5.123340 1.186552
vt 0.7260 0.9810
vt 0.7750 0.9179
vt 0.7609 0.9616
vt 0.6770 0.9179
vt 0.6910 0.9616
vt 0.7047 0.1719
vt 0.7069 0.1660
vt 0.7164 0.1766
vt 0.6957 0.1719
vt 0.6935 0.1660
vt 0.6893 0.1790
vt 0.6839 0.1766
vt 0.6893 0.1891
vt 0.6839 0.1916
vt 0.6935 0.2022
vt 0.6957 0.1962
vt 0.7047 0.1962
vt 0.7069 0.2022
vt 0.7164 0.1916
vt 0.7111 0.1891
vt 0.7111 0.1790
vt 0.7543 0.1358
vt 0.7400 0.1423
vt 0.7459 0.1358
vt 0.7400 0.1516
vt 0.7459 0.1582
vt 0.7543 0.1582
vt 0.7601 0.1516
vt 0.7601 0.1423
vt 0.7568 0.1289
vt 0.7434 0.1289
vt 0.7338 0.1395
vt 0.7338 0.1545
vt 0.7434 0.1651
vt 0.7568 0.1651
vt 0.7663 0.1545
vt 0.7663 0.1395
vt 0.6533 0.1866
vt 0.6674 0.1932
vt 0.6592 0.1932
vt 0.6733 0.1866
vt 0.6733 0.1774
vt 0.6674 0.1709
vt 0.6592 0.1709
vt 0.6533 0.1774
vt 0.6700 0.1639
vt 0.6566 0.1639
vt 0.6470 0.1745
vt 0.6470 0.1895
vt 0.6566 0.2001
vt 0.6700 0.2001
vt 0.6795 0.1895
vt 0.6795 0.1745
vt 0.4201 0.9601
vt 0.2572 0.9367
vt 0.4201 0.9367
vt 0.2397 0.9601
vt 0.4201 0.6795
vt 0.2490 0.7029
vt 0.2307 0.6795
vt 0.4201 0.7029
vt 0.2397 0.9368
vt 0.2307 0.7028
vt 0.5829 0.9367
vt 0.4201 0.9367
vt 0.6004 0.9601
vt 0.5911 0.7029
vt 0.6094 0.6795
vt 0.6004 0.9368
vt 0.6094 0.7028
vn 0.0513 0.9861 -0.1578
vn 0.5390 0.4934 0.6827
vn 0.6663 -0.1616 0.7280
vn 0.9979 -0.0442 0.0483
vn -0.0215 0.4757 0.8793
vn -0.0556 -0.1843 0.9813
vn -0.5566 0.5419 0.6297
vn -0.7449 -0.0991 0.6597
vn -0.7530 0.6531 0.0800
vn -0.9979 0.0442 -0.0483
vn -0.6663 0.1616 -0.7280
vn -0.4956 0.7443 -0.4477
vn 0.0649 0.7619 -0.6444
vn 0.0556 0.1843 -0.9813
vn 0.7449 0.0991 -0.6597
vn 0.6001 0.6958 -0.3947
vn 0.7964 0.5845 0.1550
vn -0.5567 0.5419 0.6297
vn 0.0649 0.7620 -0.6444
vn 0.7964 0.5846 0.1550
vn -0.0556 -0.1844 0.9813
vn -0.6662 0.1616 -0.7280
vn -0.0315 0.3224 0.9461
vn 0.4907 0.7466 0.4492
vn 0.0129 0.8566 0.5159
vn 0.6677 0.3751 0.6431
vn 0.0487 0.0088 -0.9988
vn 0.5541 0.5757 -0.6013
vn 0.7431 0.1773 -0.6453
vn 0.0654 0.6506 -0.7566
vn -0.4640 0.7888 0.4030
vn -0.6908 0.4352 0.5773
vn -0.4407 0.6197 -0.6495
vn -0.6589 0.2394 -0.7131
usemtl models\player\items\engineer\bet_pb
s 1
f 16/1/1 15/2/1 17/3/1
f 16/1/1 14/4/1 15/2/1
f 16/1/1 18/5/1 14/4/1
f 19/6/2 20/7/3 21/8/4
f 22/9/5 20/7/3 19/6/2
f 22/9/5 23/10/6 20/7/3
f 24/11/7 23/10/6 22/9/5
f 24/11/7 25/12/8 23/10/6
f 26/13/9 25/12/8 24/11/7
f 26/13/9 27/14/10 25/12/8
f 26/13/9 28/15/11 27/14/10
f 26/13/9 29/16/12 28/15/11
f 30/17/13 28/15/11 29/16/12
f 30/17/13 31/18/14 28/15/11
f 30/17/13 32/19/15 31/18/14
f 30/17/13 33/20/16 32/19/15
f 34/21/17 32/19/15 33/20/16
f 34/21/17 21/8/4 32/19/15
f 19/6/2 21/8/4 34/21/17
f 35/22/2 36/23/18 37/24/5
f 35/22/2 38/25/9 36/23/18
f 35/22/2 39/26/12 38/25/9
f 35/22/2 40/27/19 39/26/12
f 35/22/2 41/28/16 40/27/19
f 35/22/2 42/29/20 41/28/16
f 26/13/9 30/17/13 29/16/12
f 26/13/9 33/20/16 30/17/13
f 26/13/9 34/21/17 33/20/16
f 26/13/9 19/6/2 34/21/17
f 26/13/9 22/9/5 19/6/2
f 26/13/9 24/11/7 22/9/5
f 42/29/20 35/22/2 43/30/3
f 35/22/2 44/31/21 43/30/3
f 35/22/2 37/24/5 44/31/21
f 36/23/18 44/31/21 37/24/5
f 36/23/18 45/32/8 44/31/21
f 38/25/9 45/32/8 36/23/18
f 38/25/9 46/33/10 45/32/8
f 39/26/12 46/33/10 38/25/9
f 39/26/12 47/34/22 46/33/10
f 40/27/19 47/34/22 39/26/12
f 40/27/19 48/35/14 47/34/22
f 41/28/16 48/35/14 40/27/19
f 41/28/16 49/36/15 48/35/14
f 41/28/16 50/37/4 49/36/15
f 41/28/16 42/29/20 50/37/4
f 42/29/20 43/30/3 50/37/4
f 51/38/9 52/39/19 53/40/12
f 51/38/9 54/41/16 52/39/19
f 51/38/9 55/42/20 54/41/16
f 51/38/9 56/43/2 55/42/20
f 51/38/9 57/44/5 56/43/2
f 51/38/9 58/45/18 57/44/5
f 55/42/20 56/43/2 59/46/3
f 56/43/2 60/47/21 59/46/3
f 56/43/2 57/44/5 60/47/21
f 58/45/18 60/47/21 57/44/5
f 58/45/18 61/48/8 60/47/21
f 51/38/9 61/48/8 58/45/18
f 51/38/9 62/49/10 61/48/8
f 53/40/12 62/49/10 51/38/9
f 53/40/12 63/50/22 62/49/10
f 52/39/19 63/50/22 53/40/12
f 52/39/19 64/51/14 63/50/22
f 54/41/16 64/51/14 52/39/19
f 54/41/16 65/52/15 64/51/14
f 54/41/16 66/53/4 65/52/15
f 54/41/16 55/42/20 66/53/4
f 55/42/20 59/46/3 66/53/4
usemtl None
f 1/54/23 2/55/24 3/56/25
f 1/54/23 4/57/26 2/55/24
f 5/58/27 6/59/28 7/60/29
f 5/58/27 8/61/30 6/59/28
f 4/62/26 6/59/28 2/55/24
f 4/62/26 7/63/29 6/59/28
f 2/55/24 8/61/30 3/56/25
f 2/55/24 6/59/28 8/61/30
f 9/64/31 1/54/23 10/65/25
f 9/64/31 11/66/32 1/54/23
f 5/58/27 12/67/33 8/61/30
f 5/58/27 13/68/34 12/67/33
f 11/69/32 12/67/33 13/70/34
f 11/69/32 9/64/31 12/67/33
f 9/64/31 8/61/30 12/67/33
f 9/64/31 10/65/25 8/61/30
