# Blender v2.78 (sub 0) OBJ File: 'Rig.blend'
# www.blender.org
mtllib Rig_healthbar.mtl
o isaac_clarke_isaac_healthbar
v -0.417255 -4.303432 -4.299624
v -0.454755 -4.294834 -4.668923
v -0.452455 -5.235634 -4.607422
v -0.372055 -5.372334 -4.765123
v -0.231455 -6.228733 -4.760823
v -0.013055 -7.233631 -4.554721
v -0.041055 -8.841831 -4.078022
v 0.241545 -9.824432 -3.723623
v 0.201945 -8.974632 -4.006222
v 0.372945 -8.875534 -3.924022
v -0.452055 -6.165031 -4.475024
v -0.371655 -6.313431 -4.609723
v -0.237055 -7.129131 -4.558523
v -0.009155 -8.000332 -4.325122
v -0.244655 -7.987431 -4.290924
v -0.248755 -8.932331 -4.012423
v 0.030545 -9.725834 -3.790323
v 0.391845 -9.641830 -3.647723
v -0.249955 -9.824932 -3.722023
v -0.402355 -9.759533 -3.610623
v -0.388955 -8.882732 -3.918723
v -0.449955 -7.042732 -4.282723
v -0.365355 -7.198532 -4.414723
v -0.414855 -6.103134 -4.130923
v -0.482255 -10.425732 -3.160423
v -0.480655 -10.958431 -2.934622
v -0.382655 -11.013531 -3.064423
v -0.407755 -10.433632 -3.340023
v -0.240655 -10.597031 -3.374823
v -0.284655 -11.068634 -3.194123
v -0.001055 -11.066334 -3.192223
v 0.282445 -11.064034 -3.190322
v -0.022955 -10.496231 -3.486923
v 0.249545 -10.553631 -3.403523
v 0.395545 -11.006634 -3.058322
v 0.508645 -10.949234 -2.926322
v 0.406845 -10.504932 -3.303623
v 0.544045 -10.833031 -2.729522
v 0.500145 -10.422932 -3.158423
v -0.396855 -7.943531 -4.158123
v -0.480955 -7.902332 -4.009923
v -0.454055 -9.553734 -3.155323
v -0.441155 -7.824532 -3.668923
v -0.476555 -8.819134 -3.759122
v -0.495055 -9.679234 -3.470823
v -0.437355 -10.814533 -2.726923
v 0.521645 -9.567333 -3.165622
v 0.488045 -9.678131 -3.474022
v 0.465145 -8.787132 -3.772623
v 0.375245 -8.050034 -4.126523
v 0.345445 -7.087231 -4.445823
v 0.349545 -6.203133 -4.640824
v 0.346145 -5.249432 -4.780524
v 0.431345 -4.293934 -4.671922
v 0.430445 -3.385834 -4.641623
v 0.344245 -2.481430 -4.715823
v 0.431645 -1.670628 -4.281923
v 0.429745 -0.947433 -4.064323
v 0.460545 -1.264927 -3.773121
v 0.429845 -2.536232 -4.538224
v 0.460645 -2.615128 -4.162822
v 0.434045 -6.164131 -4.477923
v 0.431645 -5.233334 -4.610524
v 0.461945 -4.295334 -4.312422
v 0.464545 -6.111332 -4.144022
v 0.433745 -7.043232 -4.284823
v 0.500145 -7.825733 -3.695323
v 0.467645 -7.901333 -4.013123
v -0.232955 -5.231831 -4.912423
v -0.234255 -4.266331 -4.979924
v -0.010355 -5.370434 -4.933523
v -0.012755 -4.381031 -5.006123
v 0.345845 -4.284832 -4.848222
v -0.374355 -4.408131 -4.832524
v -0.012855 -6.340633 -4.769423
v 0.211045 -5.252731 -4.908023
v 0.211545 -6.228233 -4.762323
v 0.218145 -7.110931 -4.550523
v 0.229545 -7.986931 -4.292524
v 0.344845 -3.364529 -4.827524
v 0.207745 -3.334732 -4.961024
v 0.207145 -2.442131 -4.854824
v 0.344145 -1.544933 -4.467022
v 0.220945 -1.491627 -4.581322
v -0.014655 -1.549427 -4.665323
v -0.014355 -2.536533 -4.900221
v -0.222055 -1.391430 -4.525623
v -0.456255 -2.537231 -4.535223
v -0.375955 -2.597927 -4.721922
v -0.375355 -3.479233 -4.833523
v 0.208745 -4.265831 -4.981424
v -0.013755 -3.441032 -5.009723
v -0.235255 -3.337231 -4.961124
v -0.235855 -2.442627 -4.853423
v 0.318345 -0.836330 -4.210823
v 0.207045 -0.725227 -4.357322
v -0.014455 -0.725430 -4.356622
v -0.235955 -0.725727 -4.355922
v -0.376255 -1.654728 -4.496223
v -0.346155 -0.837032 -4.208622
v -0.454055 -1.668228 -4.278323
v -0.456355 -0.948433 -4.061323
v -0.418855 -1.239429 -3.761423
v -0.418655 -2.617134 -4.152422
v -0.455655 -3.388134 -4.638922
vt 0.9940 0.6657
vt 0.9940 0.8310
vt 0.8662 0.6657
vt 0.9940 0.5005
vt 0.8662 0.5005
vt 0.8662 0.5831
vt 0.7576 0.5728
vt 0.7576 0.4902
vt 0.6319 0.5005
vt 0.6319 0.4179
vt 0.5002 0.4902
vt 0.5002 0.4075
vt 0.3681 0.5005
vt 0.3681 0.4179
vt 0.5002 0.3352
vt 0.3681 0.3352
vt 0.5167 0.2629
vt 0.3846 0.2526
vt 0.4967 0.1803
vt 0.3681 0.1700
vt 0.2412 0.1803
vt 0.2560 0.2526
vt 0.7429 0.4075
vt 0.6319 0.3352
vt 0.6319 0.2526
vt 0.6319 0.1700
vt 0.1227 0.0770
vt 0.1309 0.1700
vt 0.2412 0.0770
vt 0.3698 0.0770
vt 0.5167 0.0874
vt 0.6301 0.0667
vt 0.7576 0.0874
vt 0.7576 0.1700
vt 0.7429 0.2526
vt 0.7624 0.3352
vt 0.8516 0.4179
vt 0.8662 0.1700
vt 0.8516 0.2526
vt 0.8742 0.0770
vt 0.8662 0.0047
vt 0.7491 0.0047
vt 0.6319 0.0047
vt 0.5000 0.0047
vt 0.3681 0.0047
vt 0.2495 0.0047
vt 0.1309 0.0047
vt -0.0004 0.0047
vt 0.8662 0.3352
vt 0.9940 0.3352
vt 0.9940 0.1700
vt 0.9940 0.0047
vt -0.0004 0.1700
vt -0.0004 0.3352
vt 0.1457 0.2526
vt 0.1309 0.3352
vt 0.2363 0.3249
vt 0.1457 0.4179
vt 0.2560 0.4179
vt 0.1309 0.5005
vt 0.2412 0.5005
vt 0.1309 0.5831
vt 0.2412 0.5831
vt 0.1309 0.6657
vt 0.2412 0.6657
vt 0.1309 0.7484
vt 0.2412 0.7484
vt 0.1309 0.8310
vt 0.2412 0.8310
vt 0.1227 0.9239
vt -0.0004 0.9962
vt 0.1309 0.9962
vt -0.0004 0.8310
vt -0.0004 0.6657
vt -0.0004 0.5005
vt 0.6319 0.5831
vt 0.7576 0.6554
vt 0.6319 0.6657
vt 0.5002 0.6554
vt 0.5002 0.5728
vt 0.3681 0.6657
vt 0.3681 0.5831
vt 0.8662 0.7484
vt 0.3681 0.7484
vt 0.3681 0.8310
vt 0.2412 0.9239
vt 0.3533 0.9239
vt 0.5002 0.8207
vt 0.5002 0.9136
vt 0.6319 0.8310
vt 0.6301 0.9342
vt 0.7576 0.9136
vt 0.7576 0.8207
vt 0.8742 0.9239
vt 0.8662 0.8310
vt 0.7576 0.7380
vt 0.5002 0.7380
vt 0.6319 0.7484
vt 0.2495 0.9962
vt 0.3681 0.9962
vt 0.5000 0.9962
vt 0.6319 0.9962
vt 0.7491 0.9962
vt 0.8662 0.9962
vt 0.9940 0.9962
vn -0.9950 -0.0019 0.0998
vn -0.9955 -0.0183 0.0930
vn -0.9825 -0.0018 -0.1859
vn -0.9950 0.0170 0.0981
vn -0.9818 -0.0332 -0.1868
vn -0.9827 -0.0173 -0.1841
vn -0.8064 -0.0778 -0.5863
vn -0.8026 -0.1190 -0.5844
vn -0.4296 -0.1643 -0.8879
vn -0.4172 -0.2279 -0.8798
vn 0.0014 -0.2028 -0.9792
vn 0.0220 -0.2701 -0.9626
vn 0.4100 -0.1653 -0.8969
vn 0.4105 -0.2268 -0.8831
vn -0.0020 -0.2843 -0.9587
vn 0.4385 -0.2512 -0.8629
vn -0.0277 -0.2882 -0.9572
vn 0.3384 -0.2838 -0.8972
vn 0.0213 -0.3362 -0.9415
vn 0.4038 -0.3258 -0.8549
vn 0.7526 -0.2071 -0.6250
vn 0.7293 -0.1981 -0.6549
vn -0.7951 -0.1565 -0.5859
vn -0.4302 -0.2533 -0.8665
vn -0.3940 -0.2751 -0.8769
vn -0.3903 -0.3197 -0.8634
vn 0.9441 -0.1147 -0.3091
vn 0.9421 -0.1072 -0.3176
vn 0.7386 -0.2717 -0.6169
vn 0.4048 -0.3595 -0.8408
vn -0.0382 -0.4067 -0.9127
vn -0.3862 -0.3956 -0.8332
vn -0.7503 -0.2710 -0.6030
vn -0.7645 -0.2226 -0.6050
vn -0.7605 -0.1878 -0.6216
vn -0.7916 -0.1626 -0.5890
vn -0.9723 -0.0384 -0.2304
vn -0.9786 -0.0727 -0.1923
vn -0.9770 -0.0584 -0.2049
vn -0.9904 -0.0595 -0.1241
vn -0.9740 -0.1139 -0.1960
vn -0.7945 -0.2365 -0.5594
vn -0.4741 -0.2761 -0.8361
vn -0.0231 -0.4242 -0.9052
vn 0.4735 -0.3435 -0.8110
vn 0.7672 -0.2607 -0.5860
vn 0.9197 -0.1660 -0.3558
vn 0.9889 -0.0445 -0.1415
vn -0.9810 -0.0430 -0.1889
vn -0.9934 0.0413 0.1065
vn -0.9934 0.0384 0.1082
vn -0.9868 0.0563 0.1515
vn 0.9946 -0.0181 -0.1018
vn 0.9947 -0.0166 -0.1013
vn 0.9470 -0.0768 -0.3120
vn 0.9467 -0.0764 -0.3130
vn 0.7857 -0.1594 -0.5977
vn 0.9482 -0.0639 -0.3112
vn 0.7765 -0.1539 -0.6110
vn 0.9601 -0.0486 -0.2752
vn 0.7918 -0.1118 -0.6004
vn 0.9623 -0.0276 -0.2705
vn 0.7998 -0.0640 -0.5969
vn 0.9628 -0.0037 -0.2701
vn 0.8077 -0.0138 -0.5894
vn 0.9676 0.0180 -0.2518
vn 0.8162 0.0419 -0.5762
vn 0.9650 0.0523 -0.2569
vn 0.8241 0.1094 -0.5558
vn 0.9725 0.0636 -0.2239
vn 0.9968 0.0243 -0.0763
vn 0.9320 0.1354 -0.3361
vn 0.9968 0.0156 -0.0778
vn 0.9964 0.0012 -0.0844
vn 0.9955 -0.0119 -0.0940
vn -0.4407 -0.0871 -0.8934
vn -0.8158 -0.0274 -0.5777
vn -0.4464 -0.0210 -0.8946
vn -0.0006 -0.0442 -0.9990
vn 0.0090 -0.1305 -0.9914
vn 0.4250 -0.0137 -0.9051
vn 0.4409 -0.0953 -0.8925
vn -0.9856 0.0142 -0.1683
vn 0.4555 0.0685 -0.8876
vn 0.4335 0.1877 -0.8813
vn 0.8288 0.1714 -0.5326
vn 0.5122 0.2471 -0.8225
vn -0.0001 0.1676 -0.9858
vn -0.0509 0.2837 -0.9575
vn -0.4635 0.1757 -0.8685
vn -0.4862 0.2896 -0.8245
vn -0.7956 0.1809 -0.5782
vn -0.8319 0.0913 -0.5473
vn -0.9913 0.0344 -0.1271
vn -0.9821 0.0455 -0.1828
vn -0.8218 0.0267 -0.5691
vn 0.0069 0.0472 -0.9988
vn -0.4595 0.0773 -0.8848
vn 0.8364 0.1900 -0.5141
vn 0.4437 0.2958 -0.8459
vn -0.0370 0.3088 -0.9504
vn -0.4237 0.2154 -0.8798
vn -0.8272 0.1686 -0.5359
vn -0.9565 0.1112 -0.2695
vn -0.9953 -0.0295 0.0925
usemtl Isaac_Healthbar
s 1
f 1/1/1 104/2/2 2/3/3
f 24/4/4 1/1/1 11/5/5
f 11/5/5 1/1/1 3/6/6
f 3/6/6 1/1/1 2/3/3
f 3/6/6 2/3/3 4/7/7
f 3/6/6 4/7/7 12/8/8
f 12/8/8 4/7/7 5/9/9
f 13/10/10 12/8/8 5/9/9
f 75/11/11 13/10/10 5/9/9
f 6/12/12 13/10/10 75/11/11
f 77/13/13 6/12/12 75/11/11
f 78/14/14 6/12/12 77/13/13
f 14/15/15 6/12/12 78/14/14
f 79/16/16 14/15/15 78/14/14
f 79/16/16 7/17/17 14/15/15
f 9/18/18 7/17/17 79/16/16
f 17/19/19 7/17/17 9/18/18
f 8/20/20 17/19/19 9/18/18
f 8/20/20 9/18/18 18/21/21
f 9/18/18 10/22/22 18/21/21
f 9/18/18 79/16/16 10/22/22
f 11/5/5 3/6/6 12/8/8
f 23/23/23 11/5/5 12/8/8
f 23/23/23 12/8/8 13/10/10
f 15/24/24 23/23/23 13/10/10
f 6/12/12 15/24/24 13/10/10
f 14/15/15 15/24/24 6/12/12
f 14/15/15 16/25/25 15/24/24
f 7/17/17 16/25/25 14/15/15
f 7/17/17 19/26/26 16/25/25
f 17/19/19 19/26/26 7/17/17
f 39/27/27 18/21/21 48/28/28
f 37/29/29 18/21/21 39/27/27
f 37/29/29 8/20/20 18/21/21
f 34/30/30 8/20/20 37/29/29
f 34/30/30 17/19/19 8/20/20
f 33/31/31 17/19/19 34/30/30
f 33/31/31 19/26/26 17/19/19
f 29/32/32 19/26/26 33/31/31
f 29/32/32 28/33/33 19/26/26
f 19/26/26 28/33/33 20/34/34
f 19/26/26 20/34/34 16/25/25
f 20/34/34 21/35/35 16/25/25
f 16/25/25 21/35/35 15/24/24
f 15/24/24 21/35/35 40/36/36
f 40/36/36 23/23/23 15/24/24
f 22/37/37 23/23/23 40/36/36
f 22/37/37 11/5/5 23/23/23
f 22/37/37 24/4/4 11/5/5
f 21/35/35 45/38/38 44/39/39
f 20/34/34 45/38/38 21/35/35
f 20/34/34 25/40/40 45/38/38
f 28/33/33 25/40/40 20/34/34
f 28/33/33 26/41/41 25/40/40
f 27/42/42 26/41/41 28/33/33
f 27/42/42 28/33/33 29/32/32
f 30/43/43 27/42/42 29/32/32
f 30/43/43 29/32/32 31/44/44
f 29/32/32 33/31/31 31/44/44
f 31/44/44 33/31/31 32/45/45
f 32/45/45 33/31/31 34/30/30
f 32/45/45 34/30/30 35/46/46
f 34/30/30 37/29/29 35/46/46
f 35/46/46 37/29/29 36/47/47
f 36/47/47 37/29/29 39/27/27
f 36/47/47 39/27/27 38/48/48
f 39/27/27 48/28/28 38/48/48
f 21/35/35 44/39/39 40/36/36
f 40/36/36 44/39/39 41/49/49
f 41/49/49 22/37/37 40/36/36
f 41/49/49 24/4/4 22/37/37
f 43/50/50 24/4/4 41/49/49
f 41/49/49 42/51/51 43/50/50
f 44/39/39 42/51/51 41/49/49
f 45/38/38 42/51/51 44/39/39
f 45/38/38 46/52/52 42/51/51
f 25/40/40 46/52/52 45/38/38
f 26/41/41 46/52/52 25/40/40
f 38/48/48 48/28/28 47/53/53
f 47/53/53 48/28/28 67/54/54
f 67/54/54 48/28/28 49/55/55
f 67/54/54 49/55/55 68/56/56
f 49/55/55 50/57/57 68/56/56
f 68/56/56 50/57/57 66/58/58
f 50/57/57 51/59/59 66/58/58
f 66/58/58 51/59/59 62/60/60
f 62/60/60 51/59/59 52/61/61
f 62/60/60 52/61/61 63/62/62
f 52/61/61 53/63/63 63/62/62
f 63/62/62 53/63/63 54/64/64
f 54/64/64 53/63/63 73/65/65
f 54/64/64 73/65/65 55/66/66
f 73/65/65 80/67/67 55/66/66
f 55/66/66 80/67/67 60/68/68
f 60/68/68 80/67/67 56/69/69
f 60/68/68 56/69/69 57/70/70
f 59/71/71 57/70/70 58/72/72
f 59/71/71 60/68/68 57/70/70
f 61/73/73 60/68/68 59/71/71
f 61/73/73 55/66/66 60/68/68
f 61/73/73 54/64/64 55/66/66
f 64/74/74 54/64/64 61/73/73
f 64/74/74 63/62/62 54/64/64
f 64/74/74 62/60/60 63/62/62
f 65/75/75 62/60/60 64/74/74
f 65/75/75 66/58/58 62/60/60
f 65/75/75 68/56/56 66/58/58
f 67/54/54 68/56/56 65/75/75
f 69/76/76 74/77/77 70/78/78
f 72/79/79 69/76/76 70/78/78
f 71/80/80 69/76/76 72/79/79
f 91/81/81 71/80/80 72/79/79
f 76/82/82 71/80/80 91/81/81
f 73/65/65 76/82/82 91/81/81
f 53/63/63 76/82/82 73/65/65
f 2/3/3 105/83/83 74/77/77
f 4/7/7 2/3/3 74/77/77
f 4/7/7 74/77/77 69/76/76
f 5/9/9 4/7/7 69/76/76
f 71/80/80 5/9/9 69/76/76
f 75/11/11 5/9/9 71/80/80
f 75/11/11 71/80/80 76/82/82
f 77/13/13 75/11/11 76/82/82
f 53/63/63 77/13/13 76/82/82
f 52/61/61 77/13/13 53/63/63
f 52/61/61 78/14/14 77/13/13
f 51/59/59 78/14/14 52/61/61
f 51/59/59 79/16/16 78/14/14
f 50/57/57 79/16/16 51/59/59
f 10/22/22 79/16/16 50/57/57
f 10/22/22 50/57/57 49/55/55
f 48/28/28 10/22/22 49/55/55
f 18/21/21 10/22/22 48/28/28
f 73/65/65 91/81/81 80/67/67
f 80/67/67 91/81/81 81/84/84
f 80/67/67 81/84/84 56/69/69
f 56/69/69 81/84/84 82/85/85
f 56/69/69 82/85/85 83/86/86
f 83/86/86 82/85/85 84/87/87
f 82/85/85 86/88/88 84/87/87
f 86/88/88 85/89/89 84/87/87
f 86/88/88 94/90/90 85/89/89
f 85/89/89 94/90/90 87/91/91
f 94/90/90 99/92/92 87/91/91
f 89/93/93 99/92/92 94/90/90
f 101/94/94 99/92/92 89/93/93
f 88/95/95 101/94/94 89/93/93
f 90/96/96 88/95/95 89/93/93
f 105/83/83 88/95/95 90/96/96
f 105/83/83 90/96/96 74/77/77
f 74/77/77 90/96/96 70/78/78
f 91/81/81 72/79/79 81/84/84
f 72/79/79 92/97/97 81/84/84
f 72/79/79 70/78/78 92/97/97
f 92/97/97 70/78/78 93/98/98
f 70/78/78 90/96/96 93/98/98
f 90/96/96 89/93/93 93/98/98
f 93/98/98 89/93/93 94/90/90
f 86/88/88 93/98/98 94/90/90
f 92/97/97 93/98/98 86/88/88
f 82/85/85 92/97/97 86/88/88
f 81/84/84 92/97/97 82/85/85
f 56/69/69 83/86/86 57/70/70
f 57/70/70 83/86/86 58/72/72
f 58/72/72 83/86/86 95/99/99
f 83/86/86 84/87/87 95/99/99
f 95/99/99 84/87/87 96/100/100
f 84/87/87 85/89/89 96/100/100
f 96/100/100 85/89/89 97/101/101
f 85/89/89 87/91/91 97/101/101
f 97/101/101 87/91/91 98/102/102
f 87/91/91 100/103/103 98/102/102
f 99/92/92 100/103/103 87/91/91
f 99/92/92 102/104/104 100/103/103
f 101/94/94 102/104/104 99/92/92
f 101/94/94 103/105/105 102/104/104
f 88/95/95 103/105/105 101/94/94
f 104/2/2 103/105/105 88/95/95
f 105/83/83 104/2/2 88/95/95
f 2/3/3 104/2/2 105/83/83
