# Blender v2.78 (sub 0) OBJ File: 'Rig.blend'
# www.blender.org
mtllib Rig_stasisbar.mtl
o isaac_clarke_isaac_stasisbar
v -4.080055 -2.951038 -1.630422
v -3.997455 -5.935940 -2.038621
v -3.960055 -5.187241 -1.943422
v -4.186655 -5.154640 -1.838222
v -4.480755 -5.867641 -1.843122
v -4.356255 -5.046539 -1.742821
v -4.883755 -5.628941 -1.652622
v -4.468755 -4.924740 -1.671722
v -5.140355 -5.397339 -1.523322
v -5.344955 -5.052139 -1.398522
v -4.553555 -4.752338 -1.608422
v -5.440455 -4.597141 -1.305822
v -4.590155 -4.556339 -1.567222
v -4.575455 -4.351040 -1.552122
v -5.383555 -4.122040 -1.267321
v -5.200955 -3.693039 -1.307321
v -4.505255 -4.158642 -1.564521
v -4.897855 -3.339340 -1.348822
v -4.487655 -3.138142 -1.502021
v -4.381255 -4.000141 -1.603322
v -4.214755 -3.894241 -1.664822
v -4.084855 -3.498039 -1.704522
v -3.975955 -3.748940 -1.767222
v -3.983155 -3.514839 -1.738621
vt 0.5322 0.9461
vt 0.7491 0.8501
vt 0.7491 0.9443
vt 0.7491 0.0010
vt 0.5001 0.0952
vt 0.5001 0.0008
vt 0.7491 0.0954
vt 0.7491 0.1896
vt 0.5001 0.1894
vt 0.5001 0.2838
vt 0.7491 0.2840
vt 0.7491 0.3784
vt 0.5001 0.3782
vt 0.7498 0.4958
vt 0.5001 0.4725
vt 0.5001 0.5668
vt 0.7498 0.6218
vt 0.5001 0.6611
vt 0.7491 0.6649
vt 0.5001 0.7555
vt 0.7491 0.7557
vt 0.5001 0.8499
vt 0.4999 0.9991
vt 0.5309 0.9991
vn -0.3801 0.0743 -0.9219
vn -0.3743 0.0829 -0.9236
vn -0.3512 0.1287 -0.9274
vn -0.3627 0.1482 -0.9200
vn -0.3757 0.1625 -0.9124
vn -0.4011 0.1352 -0.9060
vn -0.3502 0.1508 -0.9244
vn -0.3400 0.1645 -0.9259
vn -0.3733 0.1977 -0.9064
vn -0.3367 0.1807 -0.9241
vn -0.3177 0.1578 -0.9350
vn -0.3070 0.1431 -0.9409
vn -0.3077 0.1626 -0.9375
vn -0.3001 0.1203 -0.9463
vn -0.2969 0.1178 -0.9476
vn -0.3077 0.0771 -0.9483
vn -0.3103 0.0804 -0.9472
vn -0.3241 0.0404 -0.9451
vn -0.3078 0.0842 -0.9477
vn -0.3490 0.0612 -0.9351
vn -0.3317 0.1018 -0.9378
vn -0.3969 0.0542 -0.9163
vn -0.3951 0.0576 -0.9168
vn -0.3002 0.1066 -0.9479
usemtl Stasisbar_Isaac
s 1
f 22/1/1 19/2/2 1/3/3
f 2/4/4 4/5/5 3/6/6
f 5/7/7 4/5/5 2/4/4
f 7/8/8 4/5/5 5/7/7
f 6/9/9 4/5/5 7/8/8
f 6/9/9 7/8/8 8/10/10
f 8/10/10 7/8/8 9/11/11
f 9/11/11 10/12/12 8/10/10
f 8/10/10 10/12/12 11/13/13
f 10/12/12 12/14/14 11/13/13
f 11/13/13 12/14/14 13/15/15
f 12/14/14 14/16/16 13/15/15
f 15/17/17 14/16/16 12/14/14
f 15/17/17 17/18/18 14/16/16
f 16/19/19 17/18/18 15/17/17
f 16/19/19 20/20/20 17/18/18
f 18/21/21 20/20/20 16/19/19
f 18/21/21 19/2/2 20/20/20
f 20/20/20 19/2/2 21/22/22
f 21/22/22 19/2/2 22/1/1
f 22/1/1 23/23/23 21/22/22
f 24/24/24 23/23/23 22/1/1
